<?xml version="1.0" encoding="UTF-8"?>
<svg version="1.1" xmlns="http://www.w3.org/2000/svg" width="32" height="32">
<path d="M0 0 C2.76276177 0.52268466 5.3260876 1.10869587 8 2 C8.66 1.835 9.32 1.67 10 1.5 C12 1 12 1 15 2 C15 2.66 15 3.32 15 4 C15.66386719 4.08636719 16.32773437 4.17273438 17.01171875 4.26171875 C22.83349466 5.18810353 26.31979692 6.05472711 30 11 C32.19870169 14.69781648 32.22409703 17.76488436 31.54296875 22.00390625 C30.49666282 25.85039782 28.59318624 28.99432278 25.19921875 31.13671875 C20.92680187 32.81381312 16.4943255 32.64390481 12 32 C8.06196335 30.0504 5.62908773 27.04668368 4 23 C3.8046875 20.640625 3.8046875 20.640625 3.875 18.25 C3.89304688 17.45078125 3.91109375 16.6515625 3.9296875 15.828125 C3.96449219 14.92320313 3.96449219 14.92320313 4 14 C3.34 14 2.68 14 2 14 C2.02320313 13.40832031 2.04640625 12.81664062 2.0703125 12.20703125 C2.17411464 7.66198041 2.13708357 4.14059941 0 0 Z " fill="#70B0DC" transform="translate(0,0)"/>
<path d="M0 0 C5.05270721 0.11242935 8.0154413 0.73380527 11.75 4.375 C13.66138892 7.41488422 14.90735508 10.1476304 14.4375 13.8125 C14.210625 14.328125 13.98375 14.84375 13.75 15.375 C13.42 15.045 13.09 14.715 12.75 14.375 C12.41226562 15.08527344 12.07453125 15.79554687 11.7265625 16.52734375 C11.28054687 17.44644531 10.83453125 18.36554687 10.375 19.3125 C9.93414063 20.22902344 9.49328125 21.14554688 9.0390625 22.08984375 C7.75 24.375 7.75 24.375 5.75 25.375 C5.4715625 23.828125 5.4715625 23.828125 5.1875 22.25 C3.55605996 16.42173955 -1.44600663 13.57766225 -6.25 10.375 C-6.25 9.385 -6.25 8.395 -6.25 7.375 C-5.59 7.375 -4.93 7.375 -4.25 7.375 C-4.25 6.715 -4.25 6.055 -4.25 5.375 C-3.59 5.375 -2.93 5.375 -2.25 5.375 C-2.25 4.715 -2.25 4.055 -2.25 3.375 C-3.9 3.045 -5.55 2.715 -7.25 2.375 C-4.68599223 -0.18900777 -3.56217985 0.04866366 0 0 Z " fill="#DEE7DF" transform="translate(17.25,4.625)"/>
<path d="M0 0 C2.76276177 0.52268466 5.3260876 1.10869587 8 2 C8.66 1.835 9.32 1.67 10 1.5 C12 1 12 1 15 2 C14 5 14 5 11 7 C12.32 7.33 13.64 7.66 15 8 C15 8.66 15 9.32 15 10 C14.34 10 13.68 10 13 10 C13 10.66 13 11.32 13 12 C12.34 12 11.68 12 11 12 C10.67 12.99 10.34 13.98 10 15 C9.34 13.35 8.68 11.7 8 10 C7.3503125 10.99 7.3503125 10.99 6.6875 12 C6.130625 12.66 5.57375 13.32 5 14 C4.01 14 3.02 14 2 14 C2.02320313 13.40832031 2.04640625 12.81664062 2.0703125 12.20703125 C2.17411464 7.66198041 2.13708357 4.14059941 0 0 Z " fill="#5C6164" transform="translate(0,0)"/>
<path d="M0 0 C4.81589379 3.14885363 8.40182908 5.69973132 11 11 C11.47947414 13.91498483 11.35021136 15.99818837 11 19 C10.01 19.66 9.02 20.32 8 21 C7.7215625 19.453125 7.7215625 19.453125 7.4375 17.875 C5.80605996 12.04673955 0.80399337 9.20266225 -4 6 C-4 5.01 -4 4.02 -4 3 C-3.34 3 -2.68 3 -2 3 C-2 2.34 -2 1.68 -2 1 C-1.34 0.67 -0.68 0.34 0 0 Z " fill="#F7D13C" transform="translate(15,9)"/>
<path d="M0 0 C5.23235533 0.06875631 7.82603558 0.98130104 11.75 4.375 C8.75 5.375 8.75 5.375 6.5625 4.4375 C5.964375 4.086875 5.36625 3.73625 4.75 3.375 C4.42 4.365 4.09 5.355 3.75 6.375 C-0.37751449 5.76801257 -3.5821148 4.33689209 -7.25 2.375 C-4.68599223 -0.18900777 -3.56217985 0.04866366 0 0 Z " fill="#7FB8E1" transform="translate(17.25,4.625)"/>
<path d="M0 0 C4.81589379 3.14885363 8.40182908 5.69973132 11 11 C11.47947414 13.91498483 11.35021136 15.99818837 11 19 C10.01 19.66 9.02 20.32 8 21 C7.34 18.36 6.68 15.72 6 13 C6.66 12.67 7.32 12.34 8 12 C7.2575 11.071875 7.2575 11.071875 6.5 10.125 C5 8 5 8 5 6 C4.34 6 3.68 6 3 6 C3 5.34 3 4.68 3 4 C1.68 3.34 0.36 2.68 -1 2 C-0.67 1.34 -0.34 0.68 0 0 Z " fill="#FBD842" transform="translate(15,9)"/>
<path d="M0 0 C2 4 2 4 1.53125 6.03515625 C-0.89369857 10.80238469 -2.75698624 13.09344954 -8 15 C-8 12.69 -8 10.38 -8 8 C-7.34 9.32 -6.68 10.64 -6 12 C-4.02 8.04 -2.04 4.08 0 0 Z " fill="#88BED0" transform="translate(30,17)"/>
<path d="M0 0 C2.76223278 2.76223278 2.57856291 5.20706617 3 9 C2.34 8.67 1.68 8.34 1 8 C0.01 9.485 0.01 9.485 -1 11 C-1.33 8.69 -1.66 6.38 -2 4 C-2.61875 3.87625 -3.2375 3.7525 -3.875 3.625 C-6 3 -6 3 -8 1 C-1.9453125 0.0234375 -1.9453125 0.0234375 0 0 Z " fill="#B4D4EA" transform="translate(29,11)"/>
<path d="M0 0 C1.32 0.33 2.64 0.66 4 1 C4 1.66 4 2.32 4 3 C4.99 3.33 5.98 3.66 7 4 C6.67 5.32 6.34 6.64 6 8 C5.34 8 4.68 8 4 8 C4 8.66 4 9.32 4 10 C3.34 10 2.68 10 2 10 C0.39644899 6.49223216 -0.22036864 3.85645121 0 0 Z " fill="#DDE9F1" transform="translate(6,18)"/>
<path d="M0 0 C0.66 0.33 1.32 0.66 2 1 C1 3 0 5 -1 7 C-0.75290429 9.05061033 -0.43007496 11.09252671 -0.0625 13.125 C0.13214844 14.22070312 0.32679687 15.31640625 0.52734375 16.4453125 C0.68332031 17.28835937 0.83929688 18.13140625 1 19 C-2.86708321 15.30105084 -2.86708321 15.30105084 -3.203125 12.01171875 C-3.30161448 7.1282821 -3.11166057 4.01922823 0 0 Z " fill="#9BC6E5" transform="translate(7,9)"/>
<path d="M0 0 C2.38564077 0.57584432 4.66682784 1.22227595 7 2 C7 2.66 7 3.32 7 4 C3.71303767 4.79953138 2.28976808 5.09658936 -1 4 C-0.67 2.68 -0.34 1.36 0 0 Z " fill="#DDE9F1" transform="translate(22,8)"/>
<path d="M0 0 C1.125 1.6875 1.125 1.6875 2 4 C1.125 6.75 1.125 6.75 0 9 C-1.125 7.3125 -1.125 7.3125 -2 5 C-1.125 2.25 -1.125 2.25 0 0 Z " fill="#70B1DD" transform="translate(30,17)"/>
</svg>
