<?xml version="1.0" standalone="no"?>
<!DOCTYPE svg PUBLIC "-//W3C//DTD SVG 20010904//EN"
 "http://www.w3.org/TR/2001/REC-SVG-20010904/DTD/svg10.dtd">
<svg version="1.0" xmlns="http://www.w3.org/2000/svg"
 width="1443.000000pt" height="286.000000pt" viewBox="0 0 1443.000000 286.000000"
 preserveAspectRatio="xMidYMid meet">

<g transform="translate(0.000000,286.000000) scale(0.100000,-0.100000)"
fill="#000000" stroke="none">
<path d="M896 2519 c-52 -12 -120 -56 -139 -89 -9 -15 -24 -49 -33 -76 -14
-42 -15 -56 -4 -99 39 -158 199 -233 340 -160 38 20 100 94 100 120 0 42 14
45 220 45 l196 0 75 -106 c41 -59 81 -116 91 -128 16 -21 20 -21 495 -24 263
-1 488 0 501 3 15 4 22 13 22 29 0 16 -7 26 -22 30 -13 3 -232 6 -488 6 l-466
0 -88 125 -88 125 -208 0 c-155 0 -212 3 -220 13 -5 6 -23 37 -38 67 -31 60
-79 98 -148 118 -46 13 -44 13 -98 1z m103 -66 c13 -3 41 -23 62 -44 40 -40
57 -99 45 -156 -11 -46 -61 -99 -110 -116 -62 -21 -133 -1 -175 50 -26 31 -48
92 -42 116 1 5 3 22 5 39 7 58 116 136 171 122 11 -3 31 -8 44 -11z"/>
<path d="M11910 2025 c0 -13 60 -15 538 -15 553 0 626 -4 746 -42 68 -21 187
-86 193 -105 2 -6 -16 -14 -41 -17 -70 -11 -73 -21 -40 -133 16 -53 35 -102
42 -110 11 -10 31 -4 114 38 l102 51 85 -22 c129 -34 260 -83 371 -140 115
-59 142 -91 143 -168 1 -76 -26 -118 -112 -174 -202 -132 -456 -214 -771 -248
-62 -7 -364 -14 -737 -17 -530 -4 -633 -8 -633 -19 0 -21 1141 -20 1350 1 345
34 601 115 818 259 87 57 117 107 116 191 0 64 -17 108 -57 146 -55 53 -403
195 -526 215 -33 5 -48 17 -93 71 -89 108 -210 187 -353 229 -54 16 -120 18
-657 21 -534 4 -598 2 -598 -12z m1574 -249 c25 -29 46 -56 46 -60 0 -7 -143
-76 -158 -76 -9 0 -52 126 -52 152 0 13 50 30 107 37 6 0 32 -23 57 -53z"/>
<path d="M3845 1970 c-9 -10 -50 -93 -91 -186 -105 -236 -103 -233 -131 -294
-14 -30 -33 -73 -43 -95 -10 -22 -29 -65 -43 -95 -14 -30 -44 -98 -67 -150
-24 -52 -56 -123 -71 -158 -16 -35 -29 -68 -29 -73 0 -5 62 -9 145 -9 l144 0
28 58 28 57 145 5 c137 5 145 6 145 25 0 19 -8 20 -161 23 l-160 2 -27 -60
-27 -60 -85 0 c-65 0 -85 3 -85 14 0 13 35 102 80 201 12 28 30 68 40 90 44
97 60 135 60 139 0 2 15 37 34 78 19 40 48 107 66 148 18 41 45 104 61 139 16
35 39 86 51 113 16 38 25 48 41 46 20 -3 58 -64 87 -140 7 -18 23 -55 35 -83
13 -27 31 -68 40 -90 10 -22 30 -68 46 -103 16 -35 29 -65 29 -67 0 -3 14 -35
31 -72 17 -38 56 -124 86 -193 30 -69 63 -144 74 -167 10 -24 19 -45 19 -48 0
-3 -36 -5 -80 -5 l-80 0 -25 55 c-14 30 -36 80 -50 110 l-25 55 -240 0 -241 0
-16 -37 c-8 -21 -24 -58 -35 -82 -13 -28 -16 -47 -10 -53 21 -21 47 -1 77 57
l30 60 201 3 200 2 33 -72 c18 -40 41 -89 50 -108 l17 -35 137 -3 c89 -2 137
1 137 8 0 5 -16 45 -36 87 -20 43 -43 96 -52 118 -8 22 -19 45 -23 50 -4 6
-24 47 -43 92 -19 44 -47 109 -64 144 -16 35 -39 84 -50 109 -11 25 -30 68
-42 95 -12 28 -28 64 -35 80 -7 17 -33 73 -58 126 -25 53 -48 105 -51 116 -10
30 -27 42 -69 46 -26 3 -41 -1 -52 -13z"/>
<path d="M4750 1982 c-7 -3 -10 -183 -10 -538 l0 -534 130 0 130 0 0 534 c0
418 -3 535 -12 538 -38 14 -38 11 -38 -513 l0 -510 -77 3 -78 3 0 480 0 480
22 3 23 3 2 -458 3 -458 25 0 25 0 3 474 c1 325 -1 478 -8 485 -10 10 -116 16
-140 8z"/>
<path d="M5427 1983 c-4 -3 -7 -246 -7 -540 l0 -534 133 3 132 3 3 193 2 192
28 0 c22 0 31 -7 44 -37 17 -37 60 -118 147 -275 l43 -78 144 0 c109 0 144 3
144 13 -1 6 -21 48 -45 92 -24 44 -68 126 -97 183 -37 71 -58 102 -71 102 -34
0 -28 -30 24 -127 81 -150 99 -187 99 -200 0 -10 -23 -13 -83 -13 l-83 0 -17
33 c-9 17 -35 66 -57 107 -23 41 -64 117 -91 168 l-50 92 -69 0 -70 0 -2 -197
-3 -198 -75 0 -75 0 -3 499 c-2 482 -5 526 -32 526 -3 0 -10 -3 -13 -7z"/>
<path d="M5529 1974 c-5 -7 -8 -208 -7 -490 3 -460 4 -479 22 -482 10 -2 22 2
27 10 5 7 9 202 8 433 0 231 0 435 0 453 l1 32 143 0 c78 0 162 -5 187 -11
113 -25 194 -88 219 -168 6 -21 11 -72 11 -113 0 -61 -5 -84 -27 -129 -44 -86
-146 -149 -243 -149 -43 0 -42 -6 22 -120 14 -25 43 -79 65 -120 58 -110 66
-120 90 -120 26 0 29 14 9 50 -7 14 -35 66 -61 115 -26 50 -51 94 -56 99 -5 6
-9 20 -9 31 0 17 10 24 49 35 60 16 133 68 166 118 30 46 55 136 55 200 0 25
-9 76 -21 112 -32 103 -107 169 -231 205 -70 20 -404 27 -419 9z"/>
<path d="M7844 1981 c-2 -2 -4 -244 -4 -538 l0 -534 133 3 132 3 3 515 c1 283
0 525 -3 538 -4 17 -12 22 -28 20 l-22 -3 -5 -510 -5 -510 -75 0 -75 0 0 480
0 480 22 3 23 3 2 -458 3 -458 25 0 25 0 3 483 c2 454 1 482 -15 483 -44 4
-135 4 -139 0z"/>
<path d="M8515 1980 c-9 -15 727 -760 737 -746 12 17 10 634 -2 641 -6 3 -19
3 -30 0 -19 -6 -20 -16 -20 -261 0 -140 -3 -254 -7 -254 -5 0 -145 139 -313
310 -295 300 -345 342 -365 310z"/>
<path d="M9123 1982 c-26 -4 -23 26 -24 -296 0 -158 0 -160 25 -185 l26 -26 0
228 0 227 80 0 80 0 -2 -482 c-2 -324 -6 -482 -13 -485 -10 -3 -611 593 -670
665 -55 66 -55 67 -55 -343 l0 -376 78 3 77 3 3 219 c2 184 0 223 -13 242 -9
13 -20 24 -25 24 -6 0 -10 -79 -10 -207 0 -115 -4 -214 -9 -221 -5 -8 -17 -12
-27 -10 -18 3 -19 18 -22 286 -2 212 1 282 10 282 6 0 150 -138 320 -307 l308
-308 50 -3 50 -3 -2 537 -3 537 -105 1 c-58 1 -115 0 -127 -2z"/>
<path d="M10775 1982 c-3 -3 -5 -245 -5 -539 l0 -533 308 2 307 3 0 120 0 120
-153 3 -153 3 3 -23 c3 -22 7 -23 126 -26 l123 -3 -3 -72 -3 -72 -250 0 -250
0 0 480 0 480 22 3 23 3 2 -458 3 -458 23 -3 22 -3 0 485 c0 267 -3 486 -7
486 -5 1 -36 2 -70 4 -34 2 -65 1 -68 -2z"/>
<path d="M10986 1982 c-3 -3 -6 -223 -6 -489 l0 -483 151 0 150 0 -3 27 -3 28
-108 -3 c-74 -3 -113 0 -123 8 -12 11 -14 82 -14 460 0 435 -1 448 -19 453
-11 3 -22 2 -25 -1z"/>
<path d="M7090 1977 c-3 -2 -26 -7 -53 -10 -154 -19 -332 -166 -393 -324 -112
-294 41 -612 341 -708 63 -21 226 -26 293 -10 62 14 232 111 232 131 0 23
-124 204 -139 204 -8 0 -35 -12 -60 -27 -25 -15 -62 -33 -81 -40 -40 -15 -142
-17 -168 -4 -9 5 -30 15 -45 22 -40 19 -81 60 -113 114 -23 40 -27 59 -27 119
-1 114 51 195 160 250 36 18 178 23 188 6 3 -5 14 -10 23 -10 10 0 35 -14 56
-32 l39 -32 53 59 54 60 -23 20 c-84 76 -166 107 -283 107 -104 0 -167 -19
-254 -76 -58 -39 -59 -40 -106 -111 -55 -84 -75 -149 -75 -248 1 -123 45 -222
138 -307 135 -123 305 -150 471 -74 l55 25 -20 20 c-20 21 -21 21 -59 2 -242
-120 -534 68 -534 344 0 143 87 278 220 342 49 23 67 26 155 25 92 -1 105 -3
168 -34 67 -33 75 -44 45 -63 -11 -8 -28 -5 -59 10 -80 36 -150 47 -210 33
-92 -21 -155 -64 -205 -140 -41 -62 -54 -106 -54 -177 0 -82 48 -190 102 -231
9 -7 24 -20 33 -29 25 -24 140 -63 189 -63 51 0 92 12 163 48 29 14 54 24 56
21 14 -15 77 -115 77 -121 0 -13 -127 -76 -180 -89 -85 -20 -203 -14 -278 14
-141 53 -261 174 -300 302 -46 151 -22 305 65 429 39 55 132 129 204 162 149
69 345 45 483 -61 52 -40 58 -41 77 -19 12 14 8 21 -26 50 -46 39 -120 77
-191 99 -50 16 -195 31 -204 22z"/>
<path d="M9700 1445 l0 -535 350 0 350 0 0 130 0 130 -215 0 c-118 0 -215 3
-216 8 0 4 -2 23 -2 42 -2 30 -6 35 -29 38 l-28 3 0 -70 0 -71 213 -2 212 -3
3 -77 3 -78 -296 0 -295 0 0 510 0 510 -25 0 -25 0 0 -535z"/>
<path d="M9805 1967 c-3 -7 -4 -129 -3 -272 l3 -260 208 -3 207 -2 0 25 0 25
-169 0 c-93 0 -176 3 -185 6 -14 5 -16 34 -16 214 0 164 3 210 14 219 9 8 82
11 242 9 l229 -3 0 -75 0 -75 -158 -3 c-157 -2 -158 -3 -155 -25 3 -22 5 -22
183 -22 l180 0 3 128 3 127 -291 0 c-225 0 -292 -3 -295 -13z"/>
<path d="M8462 1418 l3 -503 25 0 25 0 3 443 c1 243 5 442 9 442 4 0 18 -12
31 -27 58 -68 683 -693 693 -693 8 0 10 12 6 35 -5 30 -61 90 -391 420 -212
212 -390 385 -396 385 -7 0 -9 -153 -8 -502z"/>
<path d="M1440 1893 c-37 -8 -109 -61 -131 -96 -83 -136 -15 -305 142 -347
107 -29 225 37 263 148 l13 37 514 5 c283 3 515 7 517 8 10 9 -2 43 -17 52
-13 6 -192 10 -514 10 l-495 0 -17 43 c-33 83 -107 137 -194 142 -31 2 -67 1
-81 -2z m157 -86 c63 -42 86 -129 55 -200 -71 -160 -308 -117 -315 57 -6 137
146 220 260 143z"/>
<path d="M5635 1868 c-3 -8 -5 -46 -3 -84 l3 -69 128 -5 c117 -5 130 -7 147
-27 25 -31 15 -70 -24 -94 -24 -15 -50 -19 -118 -19 l-87 0 -3 43 c-2 35 -7
43 -25 45 -22 3 -23 1 -23 -74 l0 -77 113 5 c171 8 237 46 237 138 0 76 -59
111 -200 119 -86 6 -95 8 -95 26 0 19 7 20 110 20 102 -1 114 -3 157 -28 33
-19 52 -40 69 -74 20 -42 21 -51 11 -100 -24 -116 -72 -143 -269 -151 -132 -5
-133 -5 -133 -28 0 -27 -2 -26 150 -24 210 3 292 57 311 205 4 31 -11 117 -27
146 -15 30 -74 78 -117 97 -16 7 -91 15 -168 19 -118 5 -139 4 -144 -9z"/>
<path d="M9917 1874 c-4 -4 -7 -83 -7 -176 l0 -168 180 0 c164 0 180 -2 181
-17 1 -33 -3 -128 -6 -131 -2 -2 -102 -3 -223 -2 -177 0 -221 -2 -231 -14 -8
-9 -11 -65 -9 -182 l3 -169 240 0 c233 0 240 1 240 20 0 19 -8 20 -208 25
-170 4 -210 8 -217 20 -6 8 -9 65 -8 125 l3 110 235 5 235 5 0 130 0 130 -180
5 -180 5 -1 105 c0 58 4 111 9 118 7 9 51 12 159 12 149 0 149 0 146 23 -3 22
-5 22 -179 25 -96 1 -178 -1 -182 -4z"/>
<path d="M3882 1818 c-7 -7 -12 -16 -12 -20 0 -8 -62 -148 -131 -296 -21 -46
-39 -86 -39 -88 0 -3 -18 -43 -40 -90 -22 -47 -37 -90 -34 -95 3 -5 99 -9 215
-9 246 0 232 -11 166 132 -24 51 -57 122 -72 158 -36 82 -39 85 -52 58 -39
-81 -100 -234 -96 -240 2 -5 15 -8 27 -8 19 0 27 10 41 48 35 93 39 93 79 6
20 -43 35 -83 32 -91 -4 -10 -35 -13 -126 -13 -110 0 -120 1 -120 19 0 19 26
89 67 180 14 29 31 70 38 90 41 113 85 184 85 138 0 -8 6 -27 14 -43 8 -16 22
-47 31 -69 10 -22 30 -68 46 -102 16 -34 29 -64 29 -67 0 -3 12 -31 26 -63 39
-87 69 -153 90 -202 48 -111 69 -146 92 -149 36 -5 33 7 -43 173 -12 28 -30
68 -40 90 -9 22 -27 63 -40 90 -12 28 -30 68 -40 90 -10 22 -33 72 -51 112
-19 40 -34 74 -34 77 0 7 -89 196 -93 196 -2 0 -8 -5 -15 -12z"/>
<path d="M13042 1708 l3 -113 129 -3 c89 -2 132 1 136 9 4 6 -4 57 -19 113
l-26 101 -113 3 -113 3 3 -113z m208 40 c6 -24 15 -59 21 -78 5 -19 9 -38 9
-42 0 -5 -47 -8 -105 -8 l-105 0 0 85 0 85 85 0 84 0 11 -42z"/>
<path d="M11910 1710 c0 -13 7 -20 20 -20 24 0 32 -28 28 -101 -2 -45 -7 -56
-25 -64 -26 -11 -31 -45 -8 -45 9 0 27 11 40 25 22 22 25 33 25 104 0 74 -2
81 -26 100 -34 26 -54 27 -54 1z"/>
<path d="M12105 1705 c-22 -21 -25 -33 -25 -100 0 -68 3 -79 26 -102 22 -22
32 -25 70 -20 72 8 84 26 84 124 0 70 -3 86 -20 103 -30 30 -103 28 -135 -5z
m123 -94 c3 -83 -2 -91 -58 -91 -49 0 -60 15 -60 81 0 85 4 90 64 87 l51 -3 3
-74z"/>
<path d="M12375 1705 c-22 -21 -25 -33 -25 -98 0 -93 15 -117 81 -124 38 -4
50 -1 75 20 28 24 29 29 28 108 -1 73 -3 84 -23 101 -35 28 -105 24 -136 -7z
m120 -100 l0 -80 -43 -3 c-61 -4 -72 8 -72 82 0 75 10 88 70 84 l45 -3 0 -80z"/>
<path d="M395 1530 c-77 -42 -117 -99 -131 -187 -11 -71 33 -162 100 -205 79
-51 176 -55 249 -9 38 23 97 99 97 124 0 8 8 21 18 30 15 14 41 17 135 17 115
0 116 0 135 -27 17 -24 67 -115 119 -216 l15 -27 306 2 307 3 66 100 66 100
439 5 439 5 0 25 0 25 -451 3 c-518 3 -454 17 -538 -118 l-53 -85 -274 -3
-274 -2 -11 22 c-47 96 -120 225 -133 235 -11 9 -53 12 -146 9 -137 -4 -165 2
-165 35 0 31 -48 95 -93 125 -59 39 -164 45 -222 14z m171 -59 c63 -29 87 -70
88 -150 0 -54 -4 -72 -23 -98 -44 -59 -149 -84 -213 -51 -61 32 -103 117 -89
180 25 110 135 165 237 119z"/>
<path d="M2193 891 c-16 -22 -50 -78 -76 -125 -27 -47 -55 -90 -62 -96 -8 -7
-134 -9 -390 -8 l-377 3 -13 38 c-34 98 -109 150 -217 150 -58 0 -75 -5 -115
-29 -97 -60 -136 -179 -93 -279 28 -65 54 -92 115 -121 52 -25 148 -33 160
-14 3 6 14 10 23 10 31 0 109 81 128 133 l17 47 391 0 c215 0 396 4 403 8 6 4
45 63 86 132 l74 125 254 5 254 5 0 25 0 25 -267 3 -268 2 -27 -39z m-1060
-112 c37 -19 87 -80 89 -108 6 -93 -12 -142 -67 -180 -50 -34 -101 -37 -163
-11 -120 52 -132 213 -22 287 37 26 125 32 163 12z"/>
</g>
</svg>
